<svg xmlns="http://www.w3.org/2000/svg" width="200" height="100" viewBox="0 0 200 100"><defs><style>.a{fill:#e6e7e8;}.b{fill:#0b0742;}.c{fill:#cbd0d8;}.d{fill:#000072;}.e{opacity:0.3;}.f{opacity:0.6;}.g{fill:#fff;}.h{fill:url(#a);}.i{opacity:0.35;}.j{fill:#db9821;}.k{fill:#ff9d00;}.l{fill:#ff78cf;}.m{fill:#ff2c4b;}.n{opacity:0.2;}.o{fill:#5e72eb;}.p{opacity:0.751;}.q{fill:#93acd3;}</style><linearGradient id="a" x1="0.5" x2="0.5" y2="1"><stop offset="0" stop-color="#ff9190"/><stop offset="1" stop-color="#5e72eb"/></linearGradient></defs><g transform="translate(0 93.847)"><path class="a" d="M490,3064.931c0,2.3-44.77,4.156-100,4.156s-100-1.86-100-4.156c0-.725,4.455-1.4,12.289-2H477.711C485.545,3063.527,490,3064.206,490,3064.931Z" transform="translate(-290 -3062.934)"/></g><g transform="translate(9.577 92.877)"><path class="b" d="M454.042,3046.854a103.9,103.9,0,0,1,11.269-.636c1.878-.031,3.756-.038,5.635-.03s3.757.019,5.635.035q5.635.041,11.269.03H611.813l5.635,0,2.817-.022,2.817-.037c1.878-.018,3.756.007,5.635.09a43.334,43.334,0,0,1,5.635.572.305.305,0,0,1,0,.6,43.291,43.291,0,0,1-5.635.572c-1.878.083-3.756.108-5.635.09l-2.817-.037-2.817-.022H487.85q-5.634-.007-11.269.03c-1.878.016-3.756.037-5.635.034s-3.756,0-5.635-.029a104.026,104.026,0,0,1-11.269-.636.3.3,0,0,1,0-.6Z" transform="translate(-453.774 -3046.185)"/></g><g transform="translate(55.517 0.731)"><path class="c" d="M1239.344,1457.724h75.777a5.8,5.8,0,0,1,5.825,5.77v58a5.8,5.8,0,0,1-5.825,5.77h-75.777" transform="translate(-1239.344 -1457.589)"/><path class="d" d="M1315.121,1525.205h-75.776v-.269h75.776a5.669,5.669,0,0,0,5.689-5.635v-58a5.669,5.669,0,0,0-5.689-5.635h-75.776v-.269h75.776a5.94,5.94,0,0,1,5.961,5.9v58A5.94,5.94,0,0,1,1315.121,1525.205Z" transform="translate(-1239.345 -1455.401)"/></g><g class="e" transform="translate(125.958 0.866)"><path class="d" d="M2455.172,1463.494v58a5.8,5.8,0,0,1-5.825,5.77h-5.46a5.8,5.8,0,0,0,5.823-5.77v-58a5.8,5.8,0,0,0-5.823-5.77h5.46A5.8,5.8,0,0,1,2455.172,1463.494Z" transform="translate(-2443.887 -1457.724)"/></g><g transform="translate(92.43 70.266)"><path class="c" d="M1881.426,2669.042l-2.283-10.876h-5.62l2.675,10.876h5.228" transform="translate(-1873.35 -2658.031)"/><path class="d" d="M1878.8,2666.981h-5.5l-2.741-11.146h5.9Zm-5.289-.27h4.954l-2.226-10.607h-5.337Z" transform="translate(-1870.561 -2655.835)"/></g><g class="e" transform="translate(92.604 70.401)"><path class="d" d="M1881.426,2669.042l-2.283-10.876h-5.62l2.675,10.876h5.228" transform="translate(-1873.523 -2658.166)"/></g><g transform="translate(77.179 70.266)"><path class="c" d="M1630.165,2669.042h-15.257l-1.314-6.257-.969-4.619h15.257l.969,4.619Z" transform="translate(-1612.457 -2658.031)"/><path class="d" d="M1627.64,2666.981H1612.1l-2.34-11.146H1625.3Zm-15.314-.27h14.979l-2.226-10.607H1610.1Z" transform="translate(-1609.765 -2655.835)"/></g><g transform="translate(42.096 0.731)"><rect class="c" width="87.427" height="69.535" rx="5" transform="translate(0.136 0.135)"/><path class="d" d="M1091.579,1525.2H1015.8a5.939,5.939,0,0,1-5.961-5.9v-58a5.939,5.939,0,0,1,5.961-5.9h75.778a5.939,5.939,0,0,1,5.96,5.9v58A5.939,5.939,0,0,1,1091.579,1525.2Zm-75.778-69.535a5.668,5.668,0,0,0-5.688,5.634v58a5.668,5.668,0,0,0,5.688,5.634h75.778a5.668,5.668,0,0,0,5.688-5.634v-58a5.668,5.668,0,0,0-5.688-5.634Z" transform="translate(-1009.841 -1455.396)"/></g><g class="e" transform="translate(77.346 70.401)"><path class="d" d="M1628.851,2662.785h-15.257l-.969-4.619h15.257Z" transform="translate(-1612.624 -2658.166)"/></g><g class="e" transform="translate(42.231 62.226)"><path class="d" d="M1099.574,2517.038v2.405a5.8,5.8,0,0,1-5.822,5.769h-75.779a5.8,5.8,0,0,1-5.825-5.769v-2.405a5.8,5.8,0,0,0,5.825,5.768h75.779A5.8,5.8,0,0,0,1099.574,2517.038Z" transform="translate(-1012.147 -2517.038)"/></g><g class="f" transform="translate(42.231 0.866)"><path class="g" d="M1098.522,1460.188a5.825,5.825,0,0,0-2.982-.814h-75.777a5.8,5.8,0,0,0-5.825,5.767v58a5.7,5.7,0,0,0,1.052,3.305,5.753,5.753,0,0,1-2.843-4.956v-58a5.8,5.8,0,0,1,5.825-5.77h75.779A5.826,5.826,0,0,1,1098.522,1460.188Z" transform="translate(-1012.147 -1457.724)"/></g><g transform="translate(41.358)"><path class="b" d="M1079.7,1514.041h-75.778a6.675,6.675,0,0,1-6.7-6.635v-58a6.675,6.675,0,0,1,6.7-6.635H1079.7a6.675,6.675,0,0,1,6.7,6.635v58A6.675,6.675,0,0,1,1079.7,1514.041Zm-75.778-69.535a4.932,4.932,0,0,0-4.95,4.9v58a4.932,4.932,0,0,0,4.95,4.9H1079.7a4.932,4.932,0,0,0,4.95-4.9v-58a4.932,4.932,0,0,0-4.95-4.9Z" transform="translate(-997.219 -1442.774)"/></g><g transform="translate(54.643)"><path class="b" d="M1301.045,1514.041h-75.776a.866.866,0,1,1,0-1.732h75.776a4.933,4.933,0,0,0,4.951-4.9v-58a4.933,4.933,0,0,0-4.951-4.9h-75.776a.866.866,0,1,1,0-1.732h75.776a6.675,6.675,0,0,1,6.7,6.636v58A6.675,6.675,0,0,1,1301.045,1514.041Z" transform="translate(-1224.394 -1442.774)"/></g><g transform="translate(47.601 6.505)"><path class="h" d="M1180.669,1557.915v46.448a2.858,2.858,0,0,1-2.873,2.845h-70.941a2.859,2.859,0,0,1-2.873-2.845v-46.448a2.86,2.86,0,0,1,2.873-2.845H1177.8A2.858,2.858,0,0,1,1180.669,1557.915Z" transform="translate(-1103.983 -1555.07)"/></g><g class="f" transform="translate(49.914 8.457)"><path class="g" d="M1220.075,1591.562v46.448a2.86,2.86,0,0,1-2.873,2.845h-70.941a2.865,2.865,0,0,1-2.725-1.952,3.006,3.006,0,0,0,.559.054h70.941a2.858,2.858,0,0,0,2.873-2.845v-46.448a2.727,2.727,0,0,0-.147-.893A2.853,2.853,0,0,1,1220.075,1591.562Z" transform="translate(-1143.536 -1588.771)"/></g><g class="i" transform="translate(57.59 9.565)"><path class="g" d="M1310.35,1656.985H1296.2l-21.4-49.078h14.148Z" transform="translate(-1274.797 -1607.907)"/></g><g class="i" transform="translate(78.81 9.565)"><path class="g" d="M1667.895,1656.985h-8.835l-21.4-49.078h8.835Z" transform="translate(-1637.655 -1607.907)"/></g><g class="e" transform="translate(47.601 6.505)"><path class="d" d="M1180.669,1557.915v.215H1110.79a2.859,2.859,0,0,0-2.873,2.845v46.233h-1.062a2.859,2.859,0,0,1-2.873-2.845v-46.448a2.86,2.86,0,0,1,2.873-2.845H1177.8A2.858,2.858,0,0,1,1180.669,1557.915Z" transform="translate(-1103.983 -1555.07)"/></g><g transform="translate(46.728 5.639)"><path class="b" d="M1163.74,1594H1092.8a3.734,3.734,0,0,1-3.747-3.712v-46.448a3.734,3.734,0,0,1,3.747-3.712h70.941a3.734,3.734,0,0,1,3.747,3.712v46.448A3.734,3.734,0,0,1,1163.74,1594Zm-70.941-52.138a1.991,1.991,0,0,0-2,1.979v46.448a1.991,1.991,0,0,0,2,1.979h70.941a1.991,1.991,0,0,0,2-1.979v-46.448a1.991,1.991,0,0,0-2-1.979Z" transform="translate(-1089.052 -1540.127)"/></g><g transform="translate(79.605 61.917)"><ellipse class="b" cx="2.748" cy="2.722" rx="2.748" ry="2.722"/></g><g class="f" transform="translate(81.181 62.528)"><path class="g" d="M1682.672,2524.711a2.752,2.752,0,0,1-4.481,2.11,2.761,2.761,0,0,0,1.172.26,2.733,2.733,0,0,0,2.748-2.721,2.7,2.7,0,0,0-1.014-2.11A2.718,2.718,0,0,1,1682.672,2524.711Z" transform="translate(-1678.191 -2522.249)"/></g><g class="e" transform="translate(78.855 61.454)"><path class="d" d="M1639.173,2506.9a2.7,2.7,0,0,0,.942,2.051,2.727,2.727,0,1,1,2.863-4.565,2.776,2.776,0,0,0-1.057-.208A2.733,2.733,0,0,0,1639.173,2506.9Z" transform="translate(-1638.424 -2503.711)"/></g><g transform="translate(76.472 69.535)"><path class="b" d="M1616.088,2655.822a.872.872,0,0,1-.855-.69l-2.139-10.187h-13.471l2.064,9.834a.866.866,0,0,1-.678,1.024.875.875,0,0,1-1.034-.672l-2.283-10.877a.859.859,0,0,1,.178-.722.877.877,0,0,1,.678-.32h15.257a.872.872,0,0,1,.856.69l2.283,10.876a.872.872,0,0,1-.857,1.042Z" transform="translate(-1597.675 -2643.213)"/></g><g transform="translate(97.35 69.534)"><path class="d" d="M1957.835,2655.819a.872.872,0,0,1-.855-.69l-2.283-10.877a.866.866,0,0,1,.678-1.024.875.875,0,0,1,1.034.671l2.283,10.877a.866.866,0,0,1-.678,1.024A.876.876,0,0,1,1957.835,2655.819Z" transform="translate(-1954.678 -2643.21)"/></g><g transform="translate(60.923 81.142)"><path class="c" d="M1389.788,2848.5v0a2.58,2.58,0,0,1-2.59,2.566h-50.5a2.579,2.579,0,0,1-2.59-2.566v0a2.579,2.579,0,0,1,2.59-2.566h50.5A2.58,2.58,0,0,1,1389.788,2848.5Z" transform="translate(-1333.973 -2845.803)"/><path class="d" d="M1385.006,2849.013h-50.5a2.7,2.7,0,1,1,0-5.4h50.5a2.717,2.717,0,0,1,2.726,2.7v0A2.717,2.717,0,0,1,1385.006,2849.013Zm-50.5-5.134a2.432,2.432,0,1,0,0,4.865h50.5a2.446,2.446,0,0,0,2.454-2.431v0a2.445,2.445,0,0,0-2.454-2.431Z" transform="translate(-1331.782 -2843.609)"/></g><g class="f" transform="translate(61.06 81.277)"><path class="g" d="M1389.805,2848.5v0a2.534,2.534,0,0,1-.135.819,2.59,2.59,0,0,0-2.455-1.75h-50.5a2.584,2.584,0,0,0-2.453,1.75,2.474,2.474,0,0,1-.137-.819v0a2.579,2.579,0,0,1,2.59-2.566h50.5A2.581,2.581,0,0,1,1389.805,2848.5Z" transform="translate(-1334.127 -2845.938)"/></g><g transform="translate(60.185 80.411)"><path class="b" d="M1373.12,2837.853h-50.5a3.433,3.433,0,1,1,0-6.866h50.5a3.452,3.452,0,0,1,3.465,3.432v0A3.452,3.452,0,0,1,1373.12,2837.853Zm-50.5-5.134a1.7,1.7,0,1,0,0,3.4h50.5a1.71,1.71,0,0,0,1.716-1.7v0a1.71,1.71,0,0,0-1.716-1.7Z" transform="translate(-1319.157 -2830.987)"/></g><g transform="translate(102.738 80.411)"><path class="d" d="M2047.69,2837.853a.866.866,0,1,1,0-1.732,1.7,1.7,0,1,0,0-3.4.866.866,0,1,1,0-1.732,3.433,3.433,0,1,1,0,6.866Z" transform="translate(-2046.816 -2830.987)"/></g><g transform="translate(123.884 84.762)"><path class="d" d="M2409.078,2906.093l-.664.99,1.422.062Z" transform="translate(-2408.414 -2906.093)"/></g><g transform="translate(145.547 86.277)"><path class="j" d="M2778.852,2934.57H2808.9a3.736,3.736,0,0,1,3.753,3.718h0A3.735,3.735,0,0,1,2808.9,2942h-29.549" transform="translate(-2778.852 -2934.435)"/><path class="d" d="M2808.9,2939.951h-29.549v-.269H2808.9a3.583,3.583,0,1,0,0-7.166h-30.049v-.269H2808.9a3.852,3.852,0,1,1,0,7.7Z" transform="translate(-2778.852 -2932.247)"/></g><g class="e" transform="translate(145.664 88.143)"><path class="d" d="M2814.442,2967.322a3.707,3.707,0,0,1-1,1.762,3.76,3.76,0,0,1-2.655,1.089h-29.548l-.382-5.7h29.93A3.748,3.748,0,0,1,2814.442,2967.322Z" transform="translate(-2780.86 -2964.47)"/></g><g transform="translate(20.515 86.276)"><rect class="j" width="130.891" height="7.435" rx="3.718" transform="translate(0.136 0.135)"/><path class="d" d="M768.085,2939.947H644.7a3.853,3.853,0,1,1,0-7.7H768.085a3.853,3.853,0,1,1,0,7.7ZM644.7,2932.511a3.583,3.583,0,1,0,0,7.166H768.085a3.583,3.583,0,1,0,0-7.166Z" transform="translate(-640.812 -2932.242)"/></g><g class="f" transform="translate(20.651 86.52)"><path class="g" d="M774.029,2940.157c0,.054,0,.106,0,.158a3.753,3.753,0,0,0-3.457-2.269H647.182a3.752,3.752,0,0,0-2.653,1.089,3.683,3.683,0,0,0-1.094,2.471,3.644,3.644,0,0,1-.3-1.45,3.69,3.69,0,0,1,1.1-2.63,3.761,3.761,0,0,1,2.655-1.088H770.274A3.737,3.737,0,0,1,774.029,2940.157Z" transform="translate(-643.138 -2936.439)"/></g><g transform="translate(19.777 85.545)"><path class="b" d="M756.2,2928.787H632.816a4.584,4.584,0,1,1,0-9.167H756.2a4.584,4.584,0,1,1,0,9.167Zm-123.384-7.435a2.852,2.852,0,1,0,0,5.7H756.2a2.852,2.852,0,1,0,0-5.7Z" transform="translate(-628.188 -2919.62)"/></g><g transform="translate(144.673 85.545)"><path class="b" d="M2794.824,2928.787h-29.549a.866.866,0,1,1,0-1.732h29.549a2.852,2.852,0,1,0,0-5.7h-30.048a.866.866,0,1,1,0-1.732h30.048a4.584,4.584,0,1,1,0,9.167Z" transform="translate(-2763.901 -2919.62)"/></g><g transform="translate(156.445 76.54)"><path class="k" d="M2976.719,2779.659c-.687.8-1.528,1.455-2.247,2.224-.063.068-.126.137-.186.207a4.486,4.486,0,0,0-1.225,2.547c-.072.969.324,1.961.074,2.9a2.6,2.6,0,0,1-3.03,1.678,3.437,3.437,0,0,1-2.465-2.645,5.151,5.151,0,0,1,.723-3.645,11.1,11.1,0,0,1,2.563-2.8c.036-.03.072-.061.11-.091a21.618,21.618,0,0,0,2.3-2.01,0,0,0,0,0,0,0c.093-.1.182-.2.269-.309a5.576,5.576,0,0,0,1.421-3.226,3.175,3.175,0,0,0-3.9-3.375l.621-4.341a8.116,8.116,0,0,1,6.241,4.745v0c.034.08.066.16.1.24A7.971,7.971,0,0,1,2976.719,2779.659Z" transform="translate(-2967.413 -2766.618)"/><path class="d" d="M2968.458,2786.94a2.687,2.687,0,0,1-.581-.063,3.558,3.558,0,0,1-2.568-2.748,5.244,5.244,0,0,1,.739-3.741,11.337,11.337,0,0,1,2.594-2.84l.111-.092c.157-.128.316-.256.476-.385a16.164,16.164,0,0,0,1.811-1.61l.039-.042c.078-.086.153-.174.227-.263a5.358,5.358,0,0,0,1.391-3.145,3.019,3.019,0,0,0-1.189-2.712,3.1,3.1,0,0,0-2.53-.531l-.211.074.672-4.694.134.018a8.24,8.24,0,0,1,6.348,4.827l.011.027c.029.07.057.139.084.209a8.154,8.154,0,0,1-1.39,8.048h0a15.952,15.952,0,0,1-1.259,1.262c-.333.31-.677.631-.992.967-.061.066-.123.133-.182.2a4.318,4.318,0,0,0-1.192,2.469,6.092,6.092,0,0,0,.074,1.2,4.46,4.46,0,0,1,0,1.723A2.7,2.7,0,0,1,2968.458,2786.94Zm2.744-11.256a16.715,16.715,0,0,1-1.8,1.6c-.159.128-.318.255-.476.385l-.109.091a11.077,11.077,0,0,0-2.533,2.768,4.976,4.976,0,0,0-.708,3.549,3.281,3.281,0,0,0,2.361,2.542,2.455,2.455,0,0,0,2.869-1.581,4.2,4.2,0,0,0,0-1.62,6.276,6.276,0,0,1-.075-1.257,4.574,4.574,0,0,1,1.258-2.625c.06-.07.125-.14.188-.209.321-.343.669-.667,1.006-.98a15.736,15.736,0,0,0,1.237-1.24,7.871,7.871,0,0,0,1.347-7.766c-.033-.085-.063-.16-.1-.236l-.011-.027a7.969,7.969,0,0,0-5.989-4.62l-.573,4a3.481,3.481,0,0,1,2.572.625,3.276,3.276,0,0,1,1.3,2.938,5.616,5.616,0,0,1-1.452,3.307c-.078.094-.156.186-.238.276v.083Z" transform="translate(-2965.216 -2764.146)"/></g><g transform="translate(156.582 89.954)"><path class="g" d="M2973.134,3003.241a2.6,2.6,0,0,1-3.03,1.679,3.438,3.438,0,0,1-2.465-2.645,5.15,5.15,0,0,1,.723-3.645,11.091,11.091,0,0,1,2.563-2.8c.036-.03.072-.061.11-.091a4.911,4.911,0,0,1,3.25,2.057,4.486,4.486,0,0,0-1.225,2.547C2972.989,3001.309,2973.385,3002.3,2973.134,3003.241Z" transform="translate(-2967.549 -2995.735)"/></g><g class="e" transform="translate(160.162 76.692)"><path class="d" d="M3030.984,2778.021c.093-.1.182-.2.269-.309a5.575,5.575,0,0,0,1.421-3.226,3.175,3.175,0,0,0-3.9-3.375l.622-4.341a8.115,8.115,0,0,1,6.24,4.745v0C3035.638,2771.609,3035.733,2775.418,3030.984,2778.021Z" transform="translate(-3028.773 -2766.77)"/></g><g transform="translate(155.832 75.95)"><path class="b" d="M2958.6,2777.956a3.334,3.334,0,0,1-.731-.081,4.174,4.174,0,0,1-3.031-3.215,5.835,5.835,0,0,1,.809-4.176,11.935,11.935,0,0,1,2.729-3c.2-.162.394-.322.593-.481a13.191,13.191,0,0,0,1.989-1.829,4.782,4.782,0,0,0,1.254-2.783,2.439,2.439,0,0,0-.939-2.2,2.508,2.508,0,0,0-1.964-.449.751.751,0,0,1-.956-.453.741.741,0,0,1,.458-.947,3.954,3.954,0,0,1,3.348.652,3.857,3.857,0,0,1,1.55,3.448,6.2,6.2,0,0,1-1.589,3.669,14.513,14.513,0,0,1-2.208,2.046c-.193.155-.386.311-.576.468a10.539,10.539,0,0,0-2.4,2.61,4.376,4.376,0,0,0-.636,3.115,2.7,2.7,0,0,0,1.9,2.076,1.845,1.845,0,0,0,2.14-1.145,3.791,3.791,0,0,0-.018-1.39,6.767,6.767,0,0,1-.079-1.376,5.357,5.357,0,0,1,1.608-3.2c.336-.358.692-.69,1.037-1.011a14.972,14.972,0,0,0,1.189-1.189,7.257,7.257,0,0,0,1.241-7.156,7.37,7.37,0,0,0-5.74-4.517.742.742,0,1,1,.2-1.471,8.787,8.787,0,0,1,6.937,5.458,8.654,8.654,0,0,1-1.5,8.648,16.39,16.39,0,0,1-1.3,1.309c-.341.318-.663.617-.963.938a3.943,3.943,0,0,0-1.213,2.3,5.586,5.586,0,0,0,.071,1.082,4.983,4.983,0,0,1-.021,1.957A3.283,3.283,0,0,1,2958.6,2777.956Z" transform="translate(-2954.728 -2753.962)"/></g><g transform="translate(132.162 55.014)"><path class="k" d="M2584.507,2416.152a31.3,31.3,0,0,1-1.171,5.538,6.155,6.155,0,0,1-5.986,4.161H2553l8.027-29.784C2571.213,2391.088,2586.467,2399.082,2584.507,2416.152Z" transform="translate(-2552.827 -2394.485)"/><path class="d" d="M2574.5,2424.038h-24.524l8.089-30.013.055-.027a16.262,16.262,0,0,1,16.163,1.6c5.677,3.953,8.414,10.741,7.509,18.626h0a31.533,31.533,0,0,1-1.176,5.562A6.308,6.308,0,0,1,2574.5,2424.038Zm-24.169-.27H2574.5a6.035,6.035,0,0,0,5.855-4.065,31.317,31.317,0,0,0,1.166-5.514h0c.894-7.783-1.8-14.48-7.395-18.375a15.994,15.994,0,0,0-15.831-1.6Z" transform="translate(-2549.975 -2392.537)"/></g><g class="f" transform="translate(140.041 55.134)"><path class="g" d="M2707.327,2421.688a5.463,5.463,0,0,1-.862,1.695c.035-.092.066-.187.095-.283,6.233-20.559-10.63-30.844-21.864-25.828l.326-1.207C2696.249,2390.575,2713.643,2400.859,2707.327,2421.688Z" transform="translate(-2684.696 -2394.604)"/></g><g transform="translate(144.06 80.133)"><path class="g" d="M2757.246,2826.186l1.848.121s2.429,2.014-.667,6.264l-3.693-.292C2751.955,2829.967,2753.985,2826.409,2757.246,2826.186Z" transform="translate(-2753.426 -2826.186)"/></g><g transform="translate(133.546 73.573)"><path class="g" d="M2589.156,2719.409c-4.843-1.346-6.519,3.988-3.959,6.472H2573.64c4.928-.867,4.208-7.229,1.081-8.118l3.413-2.62c5.906-4.726,10.765-1.166,11,4.148Z" transform="translate(-2573.64 -2712.937)"/></g><g transform="translate(131.591 54.405)"><path class="b" d="M2565.3,2414.736h-24.346a.742.742,0,1,1,0-1.484H2565.3a5.418,5.418,0,0,0,5.268-3.633c2.809-9.265,1.048-17.4-4.832-22.329-4.709-3.945-11.31-4.915-16.424-2.415a.752.752,0,0,1-1-.337.739.739,0,0,1,.34-.994c5.642-2.758,12.9-1.709,18.056,2.612,6.357,5.325,8.289,14.033,5.3,23.891A6.923,6.923,0,0,1,2565.3,2414.736Z" transform="translate(-2540.2 -2382.019)"/></g><g class="f" transform="translate(148.595 67.074)"><path class="g" d="M2840.321,2601.223l-.128.107a4.655,4.655,0,0,1-3.2,1.045c-2.5-.084-5.345,3.965-4.24,11.667l-1.312-.308c-1.849-9.551,2.031-13.172,6.407-13,1.285.249,2.377.466,2.464.482Z" transform="translate(-2830.971 -2600.734)"/></g><g transform="translate(147.845 66.331)"><path class="b" d="M2819.389,2602.465a.757.757,0,0,1-.733-.58c-.009-.038-.016-.075-.022-.113-1.266-6.537.2-9.909,1.657-11.582a6.765,6.765,0,0,1,5.521-2.269,9.307,9.307,0,0,1,2.658.515l.031.01c.085.029.17.06.254.091a.74.74,0,0,1,.442.954.753.753,0,0,1-.963.439l-.209-.076h0a7.892,7.892,0,0,0-2.272-.448,5.292,5.292,0,0,0-4.325,1.755c-1.24,1.425-2.474,4.379-1.317,10.359,0,0,.007.038.007.042a.736.736,0,0,1-.559.885A.745.745,0,0,1,2819.389,2602.465Z" transform="translate(-2818.152 -2587.914)"/></g><g transform="translate(143.105 79.301)"><path class="b" d="M2741.426,2819.636h-.657a3.678,3.678,0,0,1-3.486-4.8c.623-1.917,2.686-3.657,6.6-2.789a13.1,13.1,0,0,0,2.816.322.742.742,0,1,1,0,1.484,14.589,14.589,0,0,1-3.143-.357c-2.492-.55-4.306.12-4.851,1.8a2.166,2.166,0,0,0,.323,1.973,2.142,2.142,0,0,0,1.737.89h.657a.742.742,0,1,1,0,1.484Z" transform="translate(-2737.1 -2811.815)"/></g><g transform="translate(94.201 37.912)"><path class="k" d="M1951.064,2127.577a13.433,13.433,0,0,1-4.485,10.215c-.344.318-.706.62-1.082.913,0,0,0,0,0,0a21,21,0,0,1-4.969,2.8,34.031,34.031,0,0,1-10.579,2.254h0q-1.394.089-2.832.088a33.907,33.907,0,0,1-15.41-3.26,19.58,19.58,0,0,1-2.97-1.882s0,0,0,0a16.238,16.238,0,0,1-1.25-1.069,13.962,13.962,0,0,1-2.795-3.651,13.613,13.613,0,0,1-1.525-6.407,16.333,16.333,0,0,1,1.286-6.277c.171-1.47.347-2.927.536-4.366a73.07,73.07,0,0,1,3.19-14.721,3.887,3.887,0,0,1,5.867-1.9,31.886,31.886,0,0,1,7.616,7.487l-.2.156a27.092,27.092,0,0,1,6.013-.671,26.652,26.652,0,0,1,5.235.514,31.873,31.873,0,0,1,7.616-7.487,3.887,3.887,0,0,1,5.867,1.9,51.854,51.854,0,0,1,1.662,5.835,127.026,127.026,0,0,1,2.08,13.388l-.036-.029c.213.556.4,1.12.557,1.692A16.765,16.765,0,0,1,1951.064,2127.577Z" transform="translate(-1903.026 -2099.493)"/><path class="d" d="M1924.925,2141.779a33.944,33.944,0,0,1-15.473-3.275,19.907,19.907,0,0,1-2.954-1.866h-.089v-.07c-.422-.328-.828-.677-1.209-1.038a14.129,14.129,0,0,1-2.821-3.686,13.777,13.777,0,0,1-1.54-6.47,16.439,16.439,0,0,1,1.289-6.31c.2-1.712.369-3.095.534-4.35a73.567,73.567,0,0,1,3.2-14.748,4.024,4.024,0,0,1,6.074-1.962,32.2,32.2,0,0,1,7.65,7.522l.015.022c.889-.188,1.8-.334,2.706-.435a27.321,27.321,0,0,1,8.154.339,32.3,32.3,0,0,1,7.6-7.448,4.022,4.022,0,0,1,6.073,1.961,51.417,51.417,0,0,1,1.666,5.85,127.724,127.724,0,0,1,2.083,13.4l.009.08c.2.529.369,1.054.508,1.564a16.922,16.922,0,0,1,.617,4.513,13.5,13.5,0,0,1-4.528,10.314c-.314.291-.654.579-1.038.879v.069h-.09a21.21,21.21,0,0,1-4.965,2.792,33.985,33.985,0,0,1-10.621,2.263C1926.853,2141.749,1925.9,2141.779,1924.925,2141.779Zm-18.246-5.344a19.6,19.6,0,0,0,2.9,1.83,33.673,33.673,0,0,0,15.347,3.245c.966,0,1.916-.03,2.823-.088a33.715,33.715,0,0,0,10.537-2.244,20.955,20.955,0,0,0,4.886-2.743h0l.052-.04c.4-.311.751-.607,1.073-.905a13.237,13.237,0,0,0,4.441-10.117,16.664,16.664,0,0,0-.607-4.442c-.149-.547-.335-1.112-.553-1.68l-.176-.458.166.13a124.966,124.966,0,0,0-2.04-13.049,51.333,51.333,0,0,0-1.657-5.821,3.75,3.75,0,0,0-5.661-1.829,31.91,31.91,0,0,0-7.581,7.452l-.051.074-.089-.018a26.992,26.992,0,0,0-8.159-.352,27.363,27.363,0,0,0-3.031.508l-.582.131.566-.447a32.05,32.05,0,0,0-7.51-7.349,3.75,3.75,0,0,0-5.661,1.83,73.308,73.308,0,0,0-3.183,14.694c-.165,1.258-.336,2.645-.536,4.365l-.009.036a16.182,16.182,0,0,0-1.276,6.225,13.512,13.512,0,0,0,1.51,6.345,13.861,13.861,0,0,0,2.768,3.616,16.032,16.032,0,0,0,1.24,1.06Z" transform="translate(-1900.837 -2097.288)"/></g><g transform="translate(102.671 64.002)"><path class="g" d="M2075.822,2562.969s-.422.248-1.111.657a34.023,34.023,0,0,1-10.579,2.254h0c-.929.06-1.875.088-2.832.088a33.9,33.9,0,0,1-15.41-3.26c-.991-2.994,1.661-5.124,5.961-6.488a4.886,4.886,0,0,0,3.3-3.438c1.687-6.772,9.81-6.772,11.5,0a4.886,4.886,0,0,0,3.3,3.438C2074.379,2557.621,2077.06,2559.837,2075.822,2562.969Z" transform="translate(-2045.681 -2547.702)"/></g><g class="e" transform="translate(98.025 38.373)"><path class="d" d="M2008.787,2132.547a13.608,13.608,0,0,1-1.525,6.408,13.949,13.949,0,0,1-2.793,3.65,16.182,16.182,0,0,1-1.251,1.069s0,0,0,0c-4.393,3.4-11,5.143-18.381,5.143-.958,0-1.9-.03-2.832-.088h0a34.9,34.9,0,0,1-9.61-1.885,20.545,20.545,0,0,1-4.3-2.518,0,0,0,0,1,0,0q-.565-.437-1.083-.913-.407-.374-.783-.772a31.243,31.243,0,0,0,13.149,3.482h0c.928.059,1.874.088,2.832.088,7.384,0,13.988-1.743,18.381-5.143a0,0,0,0,0,0,0,16.149,16.149,0,0,0,1.251-1.069,13.946,13.946,0,0,0,2.793-3.65,13.608,13.608,0,0,0,1.525-6.408,16.321,16.321,0,0,0-1.287-6.278c-.171-1.47-.346-2.927-.535-4.365a75.374,75.374,0,0,0-2.953-14.03,2.193,2.193,0,0,1,2.569,1.751c1.627,4.235,2.522,9.733,3.208,14.911.189,1.439.377,2.876.548,4.346A16.1,16.1,0,0,1,2008.787,2132.547Z" transform="translate(-1966.221 -2105.25)"/></g><g class="f" transform="translate(94.435 38.048)"><path class="g" d="M1915.582,2100.314q.385.267.767.551a3.887,3.887,0,0,0-5.318,2.213c-2.079,5.888-2.953,12.421-3.741,19.222l.036-.028a17.108,17.108,0,0,0-1.17,6.17,13.432,13.432,0,0,0,4.485,10.215c.344.318.706.621,1.082.913,0,0,0,0,0,0q.23.178.469.35a18.845,18.845,0,0,1-1.785-1.219s0,0,0,0q-.565-.438-1.083-.913a13.433,13.433,0,0,1-4.485-10.215,17.111,17.111,0,0,1,1.17-6.17l-.036.028c.788-6.8,1.662-13.333,3.741-19.222A3.886,3.886,0,0,1,1915.582,2100.314Z" transform="translate(-1904.84 -2099.625)"/></g><g class="f" transform="translate(123.506 38.048)"><path class="g" d="M2414.615,2100.777a3.858,3.858,0,0,0-3.653.407,32.81,32.81,0,0,0-6.991,6.626,1.757,1.757,0,0,1-1.689.652l-.011,0h0c-.1-.181-.207-.375-.312-.562.09.02.183.039.273.06l-.2-.156a31.852,31.852,0,0,1,7.616-7.486A3.887,3.887,0,0,1,2414.615,2100.777Z" transform="translate(-2401.956 -2099.626)"/></g><g transform="translate(100.19 43.071)"><path class="l" d="M2005.571,2198.082h0a44.568,44.568,0,0,1,1.2-8.661.965.965,0,0,1,1.686-.382,33.64,33.64,0,0,1,3.269,4.742" transform="translate(-2005.435 -2188.546)"/><path class="d" d="M2003.516,2195.891l-.272,0a44.4,44.4,0,0,1,1.206-8.693,1.1,1.1,0,0,1,1.925-.435,33.839,33.839,0,0,1,3.282,4.762l-.239.129a33.575,33.575,0,0,0-3.256-4.722.828.828,0,0,0-1.448.327A44.134,44.134,0,0,0,2003.516,2195.891Z" transform="translate(-2003.244 -2186.353)"/></g><g transform="translate(129.78 43.071)"><path class="l" d="M2511.284,2193.78a33.712,33.712,0,0,1,3.269-4.742.965.965,0,0,1,1.687.382,44.537,44.537,0,0,1,1.2,8.661h0" transform="translate(-2511.165 -2188.546)"/><path class="d" d="M2515.521,2195.888h-.136a44.172,44.172,0,0,0-1.2-8.633.829.829,0,0,0-1.448-.328,33.587,33.587,0,0,0-3.256,4.722l-.239-.129a33.857,33.857,0,0,1,3.282-4.762,1.1,1.1,0,0,1,1.925.435,44.408,44.408,0,0,1,1.206,8.688Z" transform="translate(-2509.243 -2186.352)"/></g><g class="f" transform="translate(100.628 43.206)"><path class="g" d="M2017.668,2194.737l-4.334,2.868a3.086,3.086,0,0,1-2.6.379h0l6.053-4.209a33.694,33.694,0,0,0-3.269-4.742.041.041,0,0,0-.012-.012.969.969,0,0,1,1.492.012,43.89,43.89,0,0,1,3,4.148A1.139,1.139,0,0,1,2017.668,2194.737Z" transform="translate(-2010.738 -2188.676)"/></g><g class="e" transform="translate(100.189 43.206)"><path class="d" d="M2006.493,2189.492a.954.954,0,0,0-.077.211,47.08,47.08,0,0,0-1.11,6.934l-2.067,1.444h0a44.547,44.547,0,0,1,1.2-8.661.965.965,0,0,1,1.686-.382Q2006.3,2189.253,2006.493,2189.492Z" transform="translate(-2003.239 -2188.681)"/></g><g class="e" transform="translate(129.763 43.206)"><path class="d" d="M2514.079,2190.183a.983.983,0,0,0-.161.158A33.8,33.8,0,0,0,2510.7,2195l-1.747-1.22a33.691,33.691,0,0,1,3.269-4.742.965.965,0,0,1,1.687.382C2513.961,2189.655,2514.018,2189.909,2514.079,2190.183Z" transform="translate(-2508.949 -2188.681)"/></g><g transform="translate(115.182 67.021)"><path class="b" d="M2259.615,2600.532c0,.655.915,1.184,2.039,1.181s2.035-.536,2.033-1.191-.913-.709-2.038-.707S2259.614,2599.877,2259.615,2600.532Z" transform="translate(-2259.615 -2599.815)"/></g><g transform="translate(112.523 68.264)"><path class="b" d="M2214.467,2621.427a2.705,2.705,0,0,0,.679,1.18,1.412,1.412,0,0,0,1.086.38,2.2,2.2,0,0,0,1.13-.413c.083-.059.158-.131.239-.193s.138-.149.209-.221l.194-.268a.981.981,0,0,1,1.6,0l.2.267c.071.072.137.148.21.22s.155.134.239.192a2.2,2.2,0,0,0,1.132.408,1.414,1.414,0,0,0,1.085-.386,2.707,2.707,0,0,0,.673-1.184l0-.008a.167.167,0,0,1,.325.046,2.635,2.635,0,0,1-.442,1.615,2.186,2.186,0,0,1-.7.62,2.782,2.782,0,0,1-.445.177,2.5,2.5,0,0,1-.469.08,2.983,2.983,0,0,1-1.773-.453,4.134,4.134,0,0,1-.374-.269c-.115-.1-.222-.213-.332-.322l-.265-.346a.166.166,0,0,0,.279,0l-.263.347c-.109.109-.216.221-.331.323a4.157,4.157,0,0,1-.372.272,2.984,2.984,0,0,1-1.771.462,2.446,2.446,0,0,1-.469-.078,2.775,2.775,0,0,1-.446-.174,2.191,2.191,0,0,1-.7-.617,2.63,2.63,0,0,1-.449-1.613.167.167,0,0,1,.324-.048Z" transform="translate(-2214.139 -2621.284)"/></g><g transform="translate(123.209 58.707)"><ellipse class="g" cx="4.474" cy="5.621" rx="4.474" ry="5.621" transform="matrix(1, -0.002, 0.002, 1, 0, 0.021)"/></g><g transform="translate(122.473 57.976)"><path class="b" d="M2389.522,2456.393a4.783,4.783,0,0,1-3.746-1.92,7.418,7.418,0,0,1-.022-8.868,4.779,4.779,0,0,1,3.747-1.938h.011a4.782,4.782,0,0,1,3.746,1.92,7.119,7.119,0,0,1,1.482,4.431h0a7.116,7.116,0,0,1-1.46,4.438,4.78,4.78,0,0,1-3.747,1.938Zm-.01-11.242h-.007a3.31,3.31,0,0,0-2.571,1.37,5.949,5.949,0,0,0,.017,7.03,3.313,3.313,0,0,0,2.572,1.358h.007a3.31,3.31,0,0,0,2.571-1.37,5.64,5.64,0,0,0,1.141-3.518h0a5.644,5.644,0,0,0-1.158-3.512A3.313,3.313,0,0,0,2389.512,2445.151Z" transform="translate(-2384.294 -2443.667)"/></g><g transform="translate(123.369 60.286)"><ellipse class="b" cx="3.584" cy="4.589" rx="3.584" ry="4.589" transform="matrix(1, -0.002, 0.002, 1, 0, 0.017)"/></g><g transform="translate(126.958 62.102)"><ellipse class="g" cx="0.84" cy="1.218" rx="0.84" ry="1.218" transform="translate(0 0.004) rotate(-0.14)"/></g><g transform="translate(102.224 58.707)"><ellipse class="g" cx="5.621" cy="4.474" rx="5.621" ry="4.474" transform="translate(0 11.242) rotate(-89.86)"/></g><g transform="translate(101.488 57.976)"><path class="b" d="M2030.666,2456.393h-.01c-2.88-.007-5.216-2.867-5.208-6.376h0c.009-3.5,2.353-6.351,5.228-6.351h.01c2.88.007,5.216,2.867,5.208,6.376S2033.542,2456.393,2030.666,2456.393Zm-3.719-6.372c-.007,2.69,1.659,4.883,3.712,4.888h.007c2.051,0,3.723-2.183,3.729-4.87s-1.659-4.883-3.712-4.888h-.007c-2.051,0-3.723,2.183-3.729,4.87Z" transform="translate(-2025.448 -2443.667)"/></g><g transform="translate(103.847 60.286)"><ellipse class="b" cx="4.589" cy="3.584" rx="4.589" ry="3.584" transform="translate(0 9.178) rotate(-89.86)"/></g><g transform="translate(105.765 62.102)"><ellipse class="g" cx="1.218" cy="0.84" rx="1.218" ry="0.84" transform="translate(0 2.435) rotate(-89.86)"/></g><g transform="translate(114.643 69.298)"><path class="b" d="M2255.55,2640.275a2.576,2.576,0,0,1-.533,1.648,2.7,2.7,0,0,1-4.082,0,2.577,2.577,0,0,1-.533-1.648,5.594,5.594,0,0,0,2.575-1.155A4.2,4.2,0,0,0,2255.55,2640.275Z" transform="translate(-2250.402 -2639.12)"/></g><g transform="translate(115.004 71.031)"><path class="m" d="M2263.6,2672.3a2.7,2.7,0,0,1-4.082,0A2.7,2.7,0,0,1,2263.6,2672.3Z" transform="translate(-2259.345 -2671.234)"/><path class="d" d="M2258.776,2671.176a2.707,2.707,0,0,1-2.148-.984l-.066-.083.066-.083a2.831,2.831,0,0,1,4.3,0l.066.083-.066.083A2.707,2.707,0,0,1,2258.776,2671.176Zm-1.864-1.067a2.573,2.573,0,1,0,1.864-.8A2.452,2.452,0,0,0,2256.911,2670.109Z" transform="translate(-2256.562 -2669.039)"/></g><g transform="translate(114.119 70.454)"><path class="b" d="M2244.534,2662.177a3,3,0,0,1-3.1-3.1h1.051a2.049,2.049,0,1,0,4.1,0h1.051A3,3,0,0,1,2244.534,2662.177Z" transform="translate(-2241.435 -2659.078)"/></g><g transform="translate(129.219 42.532)"><path class="b" d="M2506.488,2187.794a.683.683,0,0,1-.453-.171,30.492,30.492,0,0,0-6.023-4.209.67.67,0,0,1-.279-.919,34.426,34.426,0,0,1,3.336-4.842,1.648,1.648,0,0,1,2.879.651,45.006,45.006,0,0,1,1.22,8.8.675.675,0,0,1-.394.63A.684.684,0,0,1,2506.488,2187.794Zm-5.225-5.239a31.372,31.372,0,0,1,4.467,3.037,45.73,45.73,0,0,0-1.106-6.981.282.282,0,0,0-.493-.113A34.649,34.649,0,0,0,2501.263,2182.555Z" transform="translate(-2499.65 -2177.046)"/></g><g transform="translate(93.423 37.304)"><path class="b" d="M1912.239,2132.5c-6.936,0-12.931-1.469-17.339-4.249-4.816-3.037-7.362-7.451-7.362-12.765a17.019,17.019,0,0,1,1.3-6.462c.782-6.728,1.669-13.253,3.751-19.147a4.637,4.637,0,0,1,7-2.259,33.266,33.266,0,0,1,7.589,7.367,27.943,27.943,0,0,1,10.311-.092,33.363,33.363,0,0,1,7.523-7.275,4.638,4.638,0,0,1,7,2.258c2.106,5.964,2.989,12.571,3.779,19.383h0a17.8,17.8,0,0,1,1.138,6.226c0,5.314-2.546,9.728-7.361,12.765C1925.17,2131.027,1919.175,2132.5,1912.239,2132.5Zm-22.1-22.684a15.491,15.491,0,0,0-1.1,5.67c0,9.434,9.108,15.53,23.2,15.53s23.2-6.1,23.2-15.53a16.363,16.363,0,0,0-1.1-5.868.734.734,0,0,1-.043-.354c-.774-6.667-1.647-13.125-3.685-18.9a3.133,3.133,0,0,0-4.73-1.532,31.221,31.221,0,0,0-7.425,7.294.756.756,0,0,1-.769.312,26.4,26.4,0,0,0-10.74.111.755.755,0,0,1-.63-.146.74.74,0,0,1-.268-.445,31.475,31.475,0,0,0-7.308-7.126,3.133,3.133,0,0,0-4.731,1.532c-2.038,5.769-2.91,12.226-3.684,18.89a.72.72,0,0,1-.008.072l-.011.1A.736.736,0,0,1,1890.135,2109.813Z" transform="translate(-1887.538 -2086.79)"/></g><g transform="translate(99.645 42.532)"><path class="b" d="M1994.617,2187.791a.685.685,0,0,1-.328-.084.671.671,0,0,1-.348-.664c.031-.275.752-6.775,1.217-8.743a1.648,1.648,0,0,1,2.879-.65,34.36,34.36,0,0,1,3.336,4.841.67.67,0,0,1-.247.9,56.281,56.281,0,0,0-6.084,4.251A.684.684,0,0,1,1994.617,2187.791Zm2.146-9.4a.314.314,0,0,0-.068.008.271.271,0,0,0-.213.209c-.309,1.309-.757,4.89-1.005,6.99,1.53-1.157,2.977-2.153,4.383-3.018a34.555,34.555,0,0,0-2.883-4.084A.265.265,0,0,0,1996.763,2178.389Z" transform="translate(-1993.937 -2177.041)"/></g><g class="n" transform="translate(119.421 48.086)"><path class="g" d="M2333.181,2272.934a14.763,14.763,0,0,1,6.986,2.681.917.917,0,0,1-.389,1.606c-3.383.743-6-.057-7.565-2.953A.921.921,0,0,1,2333.181,2272.934Z" transform="translate(-2332.102 -2272.922)"/></g><g class="n" transform="translate(128.848 52.56)"><path class="g" d="M2495.625,2353.051a1.5,1.5,0,0,0-.036-2.088,1.537,1.537,0,0,0-2.016-.611c-.547.408-.193,1.091.374,1.836S2495.078,2353.459,2495.625,2353.051Z" transform="translate(-2493.3 -2350.162)"/></g><g transform="translate(117.4 78.022)"><path class="k" d="M2315.542,2800.285H2303.4a3.527,3.527,0,0,1-3.544-3.51h0a3.523,3.523,0,0,1,3.151-3.489l12.071-1.2a4.137,4.137,0,0,1,4.612,4.086h0A4.131,4.131,0,0,1,2315.542,2800.285Z" transform="translate(-2299.723 -2791.928)"/><path class="d" d="M2313.351,2798.239h-12.138a3.644,3.644,0,0,1-.409-7.269l12.073-1.2a4.319,4.319,0,0,1,3.332,1.055,4.238,4.238,0,0,1-2.858,7.411Zm0-8.223a4,4,0,0,0-.445.025l-12.073,1.2a3.374,3.374,0,0,0,.38,6.731h12.138a3.969,3.969,0,0,0,2.677-6.94A4.041,4.041,0,0,0,2313.35,2790.016Z" transform="translate(-2297.533 -2789.746)"/></g><g transform="translate(117.536 79.153)"><path class="g" d="M2299.862,2812.984a3.527,3.527,0,0,0,3.545,3.511h2.172a2.758,2.758,0,0,0,2.765-2.963l-.137-1.732a2.767,2.767,0,0,0-3.024-2.52h-.018l-2.153.214a3.541,3.541,0,0,0-2.248,1.147A3.488,3.488,0,0,0,2299.862,2812.984Z" transform="translate(-2299.862 -2809.269)"/></g><g class="e" transform="translate(117.536 80.332)"><path class="d" d="M2319.7,2831.562a4.076,4.076,0,0,1-1.216,2.908,4.156,4.156,0,0,1-2.934,1.2h-12.14a3.527,3.527,0,0,1-3.544-3.511,3.577,3.577,0,0,1,.063-.663,3.547,3.547,0,0,0,3.031,1.691h12.139a4.15,4.15,0,0,0,2.934-1.2,4.073,4.073,0,0,0,1.178-2.359A4.052,4.052,0,0,1,2319.7,2831.562Z" transform="translate(-2299.862 -2829.626)"/></g><g class="f" transform="translate(117.536 78.157)"><path class="g" d="M2319.7,2796.177a3.889,3.889,0,0,1-.042.581,4.145,4.145,0,0,0-4.569-3.5l-12.072,1.2a3.554,3.554,0,0,0-2.248,1.148,3.494,3.494,0,0,0-.853,1.757,3.422,3.422,0,0,1-.05-.585,3.486,3.486,0,0,1,.9-2.34,3.54,3.54,0,0,1,2.248-1.148l12.072-1.2A4.136,4.136,0,0,1,2319.7,2796.177Z" transform="translate(-2299.862 -2792.065)"/></g><g transform="translate(97.567 78.022)"><path class="k" d="M1980.547,2796.777a3.527,3.527,0,0,1-3.545,3.511h-12.138a4.156,4.156,0,0,1-2.934-1.2,4.075,4.075,0,0,1-1.216-2.908,4.135,4.135,0,0,1,4.611-4.086l9.9.983.018,0,2.152.214a3.54,3.54,0,0,1,2.248,1.148A3.485,3.485,0,0,1,1980.547,2796.777Z" transform="translate(-1960.578 -2791.931)"/><path class="d" d="M1974.812,2798.237h-12.138a4.278,4.278,0,0,1-3.031-1.243,4.22,4.22,0,0,1,.173-6.168,4.315,4.315,0,0,1,3.334-1.055l12.071,1.2a3.685,3.685,0,0,1,2.336,1.192,3.627,3.627,0,0,1,.937,2.431A3.668,3.668,0,0,1,1974.812,2798.237Zm-12.136-8.222a4.042,4.042,0,0,0-2.678,1.012,3.952,3.952,0,0,0-.162,5.776,4.007,4.007,0,0,0,2.838,1.165h12.138a3.4,3.4,0,0,0,3.409-3.376,3.357,3.357,0,0,0-.867-2.251,3.41,3.41,0,0,0-2.162-1.1l-12.07-1.2A4.015,4.015,0,0,0,1962.676,2790.014Z" transform="translate(-1958.388 -2789.744)"/></g><g transform="translate(109.045 79.153)"><path class="g" d="M2163.165,2812.984a3.527,3.527,0,0,1-3.545,3.511h-2.172a2.757,2.757,0,0,1-2.765-2.963l.136-1.732a2.767,2.767,0,0,1,3.024-2.52h.018l2.152.214a3.541,3.541,0,0,1,2.248,1.147A3.488,3.488,0,0,1,2163.165,2812.984Z" transform="translate(-2154.675 -2809.269)"/></g><g class="e" transform="translate(97.703 80.987)"><path class="d" d="M1980.547,2842.8a3.528,3.528,0,0,1-3.545,3.512h-12.138a4.157,4.157,0,0,1-2.934-1.2,4.076,4.076,0,0,1-1.216-2.908,3.86,3.86,0,0,1,.029-.477,4.083,4.083,0,0,0,.687.9,4.156,4.156,0,0,0,2.935,1.2H1976.5a3.535,3.535,0,0,0,3.493-2.909A3.465,3.465,0,0,1,1980.547,2842.8Z" transform="translate(-1960.714 -2840.919)"/></g><g class="f" transform="translate(97.703 78.157)"><path class="g" d="M1980.541,2796.592a3.528,3.528,0,0,0-2.822-2.013l-2.152-.214-.018,0-9.9-.983a4.135,4.135,0,0,0-4.611,4.086c0,.115,0,.227.015.339a4.068,4.068,0,0,1-.338-1.628,4.135,4.135,0,0,1,4.611-4.086l9.9.983.018,0,2.152.214a3.54,3.54,0,0,1,2.248,1.148A3.476,3.476,0,0,1,1980.541,2796.592Z" transform="translate(-1960.714 -2792.065)"/></g><g transform="translate(116.786 77.415)"><path class="b" d="M2303.477,2788.959h-12.138a4.251,4.251,0,0,1-.477-8.48l12.079-1.2a4.933,4.933,0,0,1,3.8,1.207,4.844,4.844,0,0,1-3.267,8.471Zm0-8.223a3.467,3.467,0,0,0-.376.02l-12.08,1.2a2.767,2.767,0,0,0,.319,5.519h12.138a3.363,3.363,0,0,0,2.268-5.88A3.426,3.426,0,0,0,2303.476,2780.737Z" transform="translate(-2287.045 -2779.251)"/></g><g transform="translate(96.953 77.415)"><path class="b" d="M1964.927,2788.968h-12.138a4.844,4.844,0,0,1-3.267-8.471,4.939,4.939,0,0,1,3.811-1.206l12.063,1.2a4.251,4.251,0,0,1-.468,8.48Zm-12.134-8.222a3.427,3.427,0,0,0-2.272.857,3.363,3.363,0,0,0,2.268,5.881h12.138a2.767,2.767,0,0,0,.31-5.52l-12.062-1.2A3.349,3.349,0,0,0,1952.792,2780.746Z" transform="translate(-1947.888 -2779.261)"/></g><g class="e" transform="translate(134.462 58.173)"><path class="b" d="M2589.44,2467.408c3.75.573,4.4,6.64-.134,7.677l11.567.188c-2.452-.135-2.375-4.282-.757-5.575l-.188-.015a2.222,2.222,0,0,1-1.573-3.593c3.17-4.083,4.136-11.188-2.768-19.024l.363,1.682C2599.1,2456.953,2595.09,2464.794,2589.44,2467.408Z" transform="translate(-2589.306 -2447.066)"/></g><g class="e" transform="translate(143.891 76.495)"><path class="b" d="M2770.48,2763.567a31.277,31.277,0,0,1-1.171,5.538,6.155,6.155,0,0,1-5.986,4.161h-10.475l-.558-.228c-2.838-1.109-1.909-4.61.4-5.77-1.246,4.735,15.218,4.116,17.628-3.888Z" transform="translate(-2750.528 -2763.382)"/></g><g transform="translate(30.958 68.659)"><g transform="translate(0.738 0.731)"><path class="o" d="M851.063,2644.962v6.68a8.242,8.242,0,0,1-.472,2.754,8.381,8.381,0,0,1-16.264-2.754v-6.68a1.927,1.927,0,0,1,1.936-1.917h12.864a1.936,1.936,0,0,1,1.786,1.175A1.885,1.885,0,0,1,851.063,2644.962Z" transform="translate(-834.191 -2642.91)"/><path class="d" d="M840.505,2657.874a8.474,8.474,0,0,1-8.5-8.424v-6.68a2.065,2.065,0,0,1,2.072-2.052h12.864a2.068,2.068,0,0,1,1.912,1.258,2.006,2.006,0,0,1,.16.794v6.68a8.366,8.366,0,0,1-.48,2.8A8.515,8.515,0,0,1,840.505,2657.874Zm-6.432-16.886a1.793,1.793,0,0,0-1.8,1.782v6.68a8.245,8.245,0,0,0,16,2.709,8.1,8.1,0,0,0,.464-2.709v-6.68a1.742,1.742,0,0,0-.139-.689,1.8,1.8,0,0,0-1.661-1.093Z" transform="translate(-832.001 -2640.718)"/></g><g class="e" transform="translate(5.369 0.866)"><path class="d" d="M921.261,2644.962v6.68a8.242,8.242,0,0,1-.472,2.754,8.413,8.413,0,0,1-9.6,5.362,8.355,8.355,0,0,0,6.19-5.362,8.242,8.242,0,0,0,.472-2.754v-6.68a1.885,1.885,0,0,0-.15-.742,1.936,1.936,0,0,0-1.786-1.175h3.415a1.936,1.936,0,0,1,1.786,1.175A1.885,1.885,0,0,1,921.261,2644.962Z" transform="translate(-911.185 -2643.045)"/></g><g class="f" transform="translate(0.874 0.866)"><path class="g" d="M843.652,2659.877a8.114,8.114,0,0,1-.957.054,8.329,8.329,0,0,1-8.368-8.289v-6.68a1.927,1.927,0,0,1,1.936-1.917h1.916a1.927,1.927,0,0,0-1.936,1.917v1.888c1.986.4,2.3,3.711,0,4.483v.309A8.319,8.319,0,0,0,843.652,2659.877Z" transform="translate(-834.327 -2643.045)"/></g><path class="b" d="M828.619,2646.714a9.209,9.209,0,0,1-9.242-9.155v-6.68a2.8,2.8,0,0,1,2.81-2.783h12.864a2.8,2.8,0,0,1,2.592,1.706,2.724,2.724,0,0,1,.218,1.077v6.68a9.093,9.093,0,0,1-.521,3.04A9.253,9.253,0,0,1,828.619,2646.714Zm-6.432-16.886a1.058,1.058,0,0,0-1.061,1.051v6.68a7.506,7.506,0,0,0,14.565,2.466,7.379,7.379,0,0,0,.422-2.466v-6.68a1.031,1.031,0,0,0-.08-.4,1.061,1.061,0,0,0-.981-.648Z" transform="translate(-819.377 -2628.096)"/><g transform="translate(16.946 1.907)"><path class="o" d="M1119.861,2668.421a5.118,5.118,0,0,1-5.135,5.089h-2.286a8.239,8.239,0,0,0,.472-2.754v-.463h1.813a1.894,1.894,0,0,0,1.888-1.873,1.881,1.881,0,0,0-1.888-1.871h-1.813v-2.474a1.888,1.888,0,0,0-.15-.742h1.964a5.134,5.134,0,0,1,3.512,1.381A5.047,5.047,0,0,1,1119.861,2668.421Z" transform="translate(-1112.248 -2663.199)"/><path class="o" d="M1111.636,2671.457h-2.477l.064-.18a8.1,8.1,0,0,0,.464-2.709v-.6h1.949a1.758,1.758,0,0,0,1.752-1.738,1.746,1.746,0,0,0-1.752-1.736h-1.949v-2.609a1.74,1.74,0,0,0-.139-.689l-.08-.187h2.169a5.273,5.273,0,0,1,3.605,1.417,5.21,5.21,0,0,1-3.605,9.029Zm-2.1-.27h2.1a4.954,4.954,0,1,0,0-9.907h-1.769a2.03,2.03,0,0,1,.091.607v2.34h1.677a2.017,2.017,0,0,1,2.024,2.005,2.029,2.029,0,0,1-2.024,2.008h-1.677v.328A8.373,8.373,0,0,1,1109.541,2671.187Z" transform="translate(-1109.159 -2661.011)"/></g><g transform="translate(16.264 1.175)"><path class="b" d="M1100.651,2660.292h-2.285a.877.877,0,0,1-.713-.365.86.86,0,0,1-.112-.787,7.377,7.377,0,0,0,.423-2.468v-.462a.87.87,0,0,1,.874-.866h1.814a1.006,1.006,0,1,0,0-2.012h-1.814a.87.87,0,0,1-.874-.866v-2.474a1.033,1.033,0,0,0-.08-.4.858.858,0,0,1,.076-.816.876.876,0,0,1,.729-.388h1.963a5.954,5.954,0,1,1,0,11.908Zm-1.136-1.732h1.136a4.222,4.222,0,1,0,0-8.444h-.939v1.484h.939a2.738,2.738,0,1,1,0,5.475h-.948A9.061,9.061,0,0,1,1099.515,2658.56Z" transform="translate(-1097.491 -2648.384)"/></g><g class="e" transform="translate(17.138 3.422)"><path class="b" d="M1119.861,2690.876a5.118,5.118,0,0,1-5.135,5.089h-2.286a8.24,8.24,0,0,0,.472-2.754v-.463h1.813a1.863,1.863,0,0,0,1.016-.3h.005c2.955-.369,2.505-5.129,2.49-5.28A5.047,5.047,0,0,1,1119.861,2690.876Z" transform="translate(-1112.44 -2687.169)"/></g></g><g class="p" transform="translate(30.004 47.203)"><path class="q" d="M813.745,2276.828a1.487,1.487,0,0,0,.039-.43c0-.144,0-.29-.01-.434-.012-.29-.032-.579-.054-.868l-.067-.868-.018-.217-.009-.108-.014-.1a1.25,1.25,0,0,0-.113-.362,1.335,1.335,0,0,0-1.17-.762h-.089l-.109,0-.22.009-.44.02-.879.039-3.517.125-.44.015-.22.008c-.073,0-.171,0-.255,0a3.238,3.238,0,0,1-3.018-2.552,3.247,3.247,0,0,1,.892-2.984,3.368,3.368,0,0,1,1.946-.952c.091-.015.184-.015.276-.022l.135-.007h.11l.44-.005.879-.011,3.517-.031,3.517-.01,3.517.009.879.007h.33c.037,0,.076,0,.1,0,.05,0,.1,0,.151-.007s.1-.015.15-.021a1.667,1.667,0,0,0,1-.628,1.639,1.639,0,0,0,.324-1.144,1.667,1.667,0,0,0-.547-1.079,1.7,1.7,0,0,0-.534-.327.9.9,0,0,0-.15-.05l-.076-.022-.078-.013a.981.981,0,0,0-.158-.021c-.058,0-.1-.011-.178-.011l-1.758-.044c-1.172-.032-2.345-.053-3.517-.095l-1.758-.062-.879-.031-.11,0-.136-.01a2.045,2.045,0,0,1-.272-.043,2.006,2.006,0,0,1-.508-.2,1.931,1.931,0,0,1-.739-.759,1.84,1.84,0,0,1,.138-1.96,1.763,1.763,0,0,1,.794-.6,1.759,1.759,0,0,1,.482-.109,2.045,2.045,0,0,1,.244-.006l.22.012a2.172,2.172,0,0,0,.411,0,1.481,1.481,0,0,0,.388-.107,1.466,1.466,0,0,0,.635-.515,1.4,1.4,0,0,0,.191-.377,1.587,1.587,0,0,0,.085-.423,1.541,1.541,0,0,1-.174.861,1.638,1.638,0,0,1-.632.658,1.675,1.675,0,0,1-.44.176,2.517,2.517,0,0,1-.464.055l-.22.012a1.66,1.66,0,0,0-.194.026,1.327,1.327,0,0,0-.361.125,1.422,1.422,0,0,0-.307.215,1.567,1.567,0,0,0-.233.285,1.273,1.273,0,0,0-.184.685,1.224,1.224,0,0,0,.712,1.092,1.381,1.381,0,0,0,.316.1,1.319,1.319,0,0,0,.164.013h.083l.11,0,.879-.031,1.758-.062c1.172-.041,2.345-.062,3.517-.094l1.758-.045c.064,0,.173,0,.261,0a2.091,2.091,0,0,1,.278.027l.139.02.137.032a2.018,2.018,0,0,1,.27.077,3.054,3.054,0,0,1,.975.546,2.991,2.991,0,0,1,1.06,1.93,3.047,3.047,0,0,1-.546,2.147,3.1,3.1,0,0,1-1.88,1.224l-.285.045c-.1.011-.191.014-.287.019-.053,0-.086,0-.123,0h-.11l-.22,0-.879.007-3.517.01-3.517-.011-3.517-.03-.879-.011-.44-.005-.11,0-.085,0c-.054,0-.109,0-.162.008a2.04,2.04,0,0,0-1.169.524,2.006,2.006,0,0,0-.614,1.138,2.026,2.026,0,0,0-.007.665,2.078,2.078,0,0,0,1.2,1.56,2.207,2.207,0,0,0,.675.177c.062,0,.11.011.184.013l.22.008.44.016,3.517.124.879.039.44.019.22.01.111.005.13.011a1.838,1.838,0,0,1,.944.384,1.745,1.745,0,0,1,.669,1.287l0,.121,0,.109-.005.219c-.008.291-.016.583-.03.874s-.032.583-.057.874c-.013.146-.026.291-.046.436A1.509,1.509,0,0,1,813.745,2276.828Z" transform="translate(-803.072 -2257.682)"/></g></svg>