<svg xmlns="http://www.w3.org/2000/svg" xmlns:xlink="http://www.w3.org/1999/xlink" width="220" height="97" viewBox="0 0 220 97"><defs><style>.a{fill:url(#a);}.b{fill:url(#c);}.c{clip-path:url(#d);}.d{clip-path:url(#f);}</style><linearGradient id="a" x1="0.5" x2="0.5" y2="1" gradientUnits="objectBoundingBox"><stop offset="0" stop-color="#ff9190"/><stop offset="1" stop-color="#5e72eb"/></linearGradient><linearGradient id="c" x1="0" y1="0.44" x2="1" y2="0.436" xlink:href="#a"/><clipPath id="d"><path class="a" d="M163.788,131.823a4.9,4.9,0,0,0,3.46,8.371,15.283,15.283,0,1,1-15.273,15.27,4.876,4.876,0,0,0-4.836-4.853,4.871,4.871,0,0,0-4.889,4.853,25.039,25.039,0,0,0,20.109,24.609v5.409a4.889,4.889,0,1,0,9.779,0v-5.409a25.038,25.038,0,0,0,20.112-24.609,25.069,25.069,0,0,0-25-25.071,4.7,4.7,0,0,0-3.46,1.43" transform="translate(-142.25 -130.393)"/></clipPath><clipPath id="f"><path class="a" d="M167.248,106.713a4.683,4.683,0,0,0-3.46,1.43,4.735,4.735,0,0,0-1.429,3.471v5.411a25.032,25.032,0,0,0-20.109,24.608,25.061,25.061,0,0,0,25,25.069,4.9,4.9,0,1,0,0-9.8,15.278,15.278,0,1,1,15.276-15.266,4.863,4.863,0,0,0,9.726,0,25.031,25.031,0,0,0-20.112-24.608v-5.411a4.876,4.876,0,0,0-4.889-4.9Z" transform="translate(-142.25 -106.713)"/></clipPath></defs><g transform="translate(0 0)"><path class="b" d="M16.583-25.2a2.307,2.307,0,0,1,1.669.683,2.183,2.183,0,0,1,.7,1.617V-2.459a2.355,2.355,0,0,1-.682,1.706,2.259,2.259,0,0,1-1.686.7,2.178,2.178,0,0,1-1.615-.7,2.355,2.355,0,0,1-.682-1.706V-14.674l-1.83,2.946a2.492,2.492,0,0,1-.861,1.006,2.169,2.169,0,0,1-1.256.4A2.388,2.388,0,0,1,9.03-10.7a2.33,2.33,0,0,1-.879-.988l-1.83-2.946V-2.459A2.355,2.355,0,0,1,5.639-.752a2.178,2.178,0,0,1-1.615.7,2.318,2.318,0,0,1-1.7-.7,2.324,2.324,0,0,1-.7-1.706V-22.9a2.183,2.183,0,0,1,.7-1.617,2.349,2.349,0,0,1,1.7-.683,2.174,2.174,0,0,1,1.2.359,2.417,2.417,0,0,1,.843.9L10.3-17.081l4.27-6.862a2.26,2.26,0,0,1,.825-.916A2.167,2.167,0,0,1,16.583-25.2ZM27.6-12.626a1.448,1.448,0,0,1-.036.4V-2.89a1.917,1.917,0,0,1,.036.431,2.355,2.355,0,0,1-.682,1.706,2.178,2.178,0,0,1-1.615.7,2.318,2.318,0,0,1-1.7-.7,2.324,2.324,0,0,1-.7-1.706V-22.9a2.183,2.183,0,0,1,.7-1.617,2.349,2.349,0,0,1,1.7-.683,2.206,2.206,0,0,1,1.615.683A2.211,2.211,0,0,1,27.6-22.9a1.917,1.917,0,0,1-.036.431v9.413A1.917,1.917,0,0,1,27.6-12.626Zm18.91,7.76a2.259,2.259,0,0,1,1.686.7,2.355,2.355,0,0,1,.682,1.706A2.355,2.355,0,0,1,48.2-.752a2.259,2.259,0,0,1-1.686.7H33.95a2.318,2.318,0,0,1-1.7-.7,2.324,2.324,0,0,1-.7-1.706V-22.9a2.183,2.183,0,0,1,.7-1.617,2.349,2.349,0,0,1,1.7-.683,2.206,2.206,0,0,1,1.615.683,2.211,2.211,0,0,1,.682,1.617V-4.866Zm21.278,0a2.259,2.259,0,0,1,1.686.7,2.355,2.355,0,0,1,.682,1.706,2.355,2.355,0,0,1-.682,1.706,2.259,2.259,0,0,1-1.686.7H55.228a2.318,2.318,0,0,1-1.7-.7,2.324,2.324,0,0,1-.7-1.706V-22.9a2.183,2.183,0,0,1,.7-1.617,2.349,2.349,0,0,1,1.7-.683,2.206,2.206,0,0,1,1.615.683,2.211,2.211,0,0,1,.682,1.617V-4.866ZM78.8-12.626a1.448,1.448,0,0,1-.036.4V-2.89a1.918,1.918,0,0,1,.036.431,2.355,2.355,0,0,1-.682,1.706,2.178,2.178,0,0,1-1.615.7,2.318,2.318,0,0,1-1.7-.7,2.324,2.324,0,0,1-.7-1.706V-22.9a2.183,2.183,0,0,1,.7-1.617,2.349,2.349,0,0,1,1.7-.683,2.206,2.206,0,0,1,1.615.683A2.211,2.211,0,0,1,78.8-22.9a1.918,1.918,0,0,1-.036.431v9.413A1.918,1.918,0,0,1,78.8-12.626ZM97.713-25.2a2.307,2.307,0,0,1,1.669.683,2.183,2.183,0,0,1,.7,1.617V-2.459A2.355,2.355,0,0,1,99.4-.752a2.259,2.259,0,0,1-1.686.7H85.154a2.318,2.318,0,0,1-1.7-.7,2.324,2.324,0,0,1-.7-1.706V-22.9a2.183,2.183,0,0,1,.7-1.617,2.349,2.349,0,0,1,1.7-.683Zm-2.3,20.334V-20.494H87.45V-4.866ZM118.991-25.2a2.307,2.307,0,0,1,1.669.683,2.183,2.183,0,0,1,.7,1.617V-2.459a2.355,2.355,0,0,1-.682,1.706,2.259,2.259,0,0,1-1.686.7,2.262,2.262,0,0,1-1.22-.359,2.252,2.252,0,0,1-.861-.97L108.728-14.6V-2.459a2.355,2.355,0,0,1-.682,1.706,2.178,2.178,0,0,1-1.615.7,2.318,2.318,0,0,1-1.7-.7,2.324,2.324,0,0,1-.7-1.706V-22.9a2.183,2.183,0,0,1,.7-1.617,2.349,2.349,0,0,1,1.7-.683,2.174,2.174,0,0,1,1.2.359,2.417,2.417,0,0,1,.843.9l8.217,13.329V-22.9a2.211,2.211,0,0,1,.682-1.617A2.206,2.206,0,0,1,118.991-25.2ZM16.583,10.726a2.307,2.307,0,0,1,1.669.683,2.183,2.183,0,0,1,.7,1.617V23.3a2.211,2.211,0,0,1-.682,1.617,2.289,2.289,0,0,1-1.686.683H6.321v7.868a2.355,2.355,0,0,1-.682,1.706,2.178,2.178,0,0,1-1.615.7,2.391,2.391,0,0,1-2.4-2.407V13.025a2.183,2.183,0,0,1,.7-1.617,2.349,2.349,0,0,1,1.7-.683Zm-2.3,10.167V15.432H6.321v5.461ZM27.6,23.3a1.448,1.448,0,0,1-.036.4v9.341a1.917,1.917,0,0,1,.036.431,2.355,2.355,0,0,1-.682,1.706,2.178,2.178,0,0,1-1.615.7,2.391,2.391,0,0,1-2.4-2.407V13.025a2.183,2.183,0,0,1,.7-1.617,2.349,2.349,0,0,1,1.7-.683,2.33,2.33,0,0,1,2.3,2.3,1.917,1.917,0,0,1-.036.431v9.413A1.917,1.917,0,0,1,27.6,23.3Zm20.668,8.55a2.462,2.462,0,0,1-.072,3.323,2.329,2.329,0,0,1-3.768-.629l-4.2-6.826-4.27,6.9a2.221,2.221,0,0,1-.843.916,2.2,2.2,0,0,1-1.166.341,2.391,2.391,0,0,1-2.4-2.407,2.6,2.6,0,0,1,.431-1.4l5.49-8.8L31.94,14.39a2.462,2.462,0,0,1-.395-1.365,2.183,2.183,0,0,1,.7-1.617,2.349,2.349,0,0,1,1.7-.683,2.174,2.174,0,0,1,1.2.359,2.417,2.417,0,0,1,.843.9l4.234,6.862,4.27-6.862a2.26,2.26,0,0,1,.825-.916,2.167,2.167,0,0,1,1.184-.341,2.307,2.307,0,0,1,1.669.683,2.183,2.183,0,0,1,.7,1.617,2.371,2.371,0,0,1-.431,1.4L42.956,23.3ZM57.524,25.6V31.06H67.787a2.259,2.259,0,0,1,1.686.7,2.477,2.477,0,0,1,0,3.413,2.259,2.259,0,0,1-1.686.7H55.228a2.391,2.391,0,0,1-2.4-2.407V13.025a2.183,2.183,0,0,1,.7-1.617,2.349,2.349,0,0,1,1.7-.683H67.787a2.307,2.307,0,0,1,1.669.683,2.183,2.183,0,0,1,.7,1.617,2.355,2.355,0,0,1-.682,1.706,2.259,2.259,0,0,1-1.686.7H57.524v5.461H67.787a2.259,2.259,0,0,1,1.686.7,2.355,2.355,0,0,1,.682,1.706,2.211,2.211,0,0,1-.682,1.617,2.289,2.289,0,0,1-1.686.683Zm31.54,5.461a2.259,2.259,0,0,1,1.686.7,2.477,2.477,0,0,1,0,3.413,2.259,2.259,0,0,1-1.686.7H76.506a2.391,2.391,0,0,1-2.4-2.407V13.025a2.183,2.183,0,0,1,.7-1.617,2.349,2.349,0,0,1,1.7-.683,2.33,2.33,0,0,1,2.3,2.3V31.06Zm21.278-10.167a2.259,2.259,0,0,1,1.686.7,2.355,2.355,0,0,1,.682,1.706V33.467a2.355,2.355,0,0,1-.682,1.706,2.259,2.259,0,0,1-1.686.7H97.784a2.407,2.407,0,1,1,0-4.814h10.262V25.6H97.784a2.349,2.349,0,0,1-1.7-.683,2.183,2.183,0,0,1-.7-1.617V13.025a2.183,2.183,0,0,1,.7-1.617,2.349,2.349,0,0,1,1.7-.683h12.559a2.307,2.307,0,0,1,1.669.683,2.183,2.183,0,0,1,.7,1.617,2.355,2.355,0,0,1-.682,1.706,2.259,2.259,0,0,1-1.686.7H100.081v5.461ZM16.583,56.819a2.259,2.259,0,0,1,1.686.7,2.355,2.355,0,0,1,.682,1.706V69.393a2.355,2.355,0,0,1-.682,1.706,2.259,2.259,0,0,1-1.686.7H4.024a2.391,2.391,0,0,1-2.4-2.407V48.951a2.183,2.183,0,0,1,.7-1.617,2.349,2.349,0,0,1,1.7-.683H16.583a2.307,2.307,0,0,1,1.669.683,2.183,2.183,0,0,1,.7,1.617,2.355,2.355,0,0,1-.682,1.706,2.259,2.259,0,0,1-1.686.7H6.321V66.986h7.966v-7.76a2.355,2.355,0,0,1,.682-1.706A2.178,2.178,0,0,1,16.583,56.819ZM37.861,46.652a2.307,2.307,0,0,1,1.669.683,2.183,2.183,0,0,1,.7,1.617V69.393a2.355,2.355,0,0,1-.682,1.706,2.259,2.259,0,0,1-1.686.7,2.178,2.178,0,0,1-1.615-.7,2.355,2.355,0,0,1-.682-1.706V61.525H27.6v7.868a2.355,2.355,0,0,1-.682,1.706,2.178,2.178,0,0,1-1.615.7,2.391,2.391,0,0,1-2.4-2.407V48.951a2.183,2.183,0,0,1,.7-1.617,2.349,2.349,0,0,1,1.7-.683H37.861Zm-2.3,10.167V51.358H27.6v5.461ZM59.139,66.986a2.259,2.259,0,0,1,1.686.7,2.477,2.477,0,0,1,0,3.413,2.259,2.259,0,0,1-1.686.7H46.58a2.391,2.391,0,0,1-2.4-2.407V48.951a2.183,2.183,0,0,1,.7-1.617,2.349,2.349,0,0,1,1.7-.683,2.33,2.33,0,0,1,2.3,2.3V66.986Zm21.278,0a2.259,2.259,0,0,1,1.686.7,2.477,2.477,0,0,1,0,3.413,2.259,2.259,0,0,1-1.686.7H67.859a2.391,2.391,0,0,1-2.4-2.407V48.951a2.183,2.183,0,0,1,.7-1.617,2.349,2.349,0,0,1,1.7-.683,2.33,2.33,0,0,1,2.3,2.3V66.986Zm11.016-5.461v5.461H101.7a2.259,2.259,0,0,1,1.686.7,2.477,2.477,0,0,1,0,3.413,2.259,2.259,0,0,1-1.686.7H89.137a2.391,2.391,0,0,1-2.4-2.407V48.951a2.183,2.183,0,0,1,.7-1.617,2.349,2.349,0,0,1,1.7-.683H101.7a2.307,2.307,0,0,1,1.669.683,2.183,2.183,0,0,1,.7,1.617,2.355,2.355,0,0,1-.682,1.706,2.259,2.259,0,0,1-1.686.7H91.433v5.461H101.7a2.259,2.259,0,0,1,1.686.7,2.355,2.355,0,0,1,.682,1.706,2.211,2.211,0,0,1-.682,1.617,2.289,2.289,0,0,1-1.686.683Zm33.909-2.3a2.211,2.211,0,0,1-.682,1.617,2.289,2.289,0,0,1-1.686.683h-2.081l3.875,6.287a2.383,2.383,0,0,1,.574,1.581,2.355,2.355,0,0,1-.682,1.706,2.259,2.259,0,0,1-1.686.7,2.157,2.157,0,0,1-1.238-.377,2.368,2.368,0,0,1-.843-1.024l-5.526-8.874h-2.655v7.868a2.355,2.355,0,0,1-.682,1.706,2.178,2.178,0,0,1-1.615.7,2.391,2.391,0,0,1-2.4-2.407V48.951a2.183,2.183,0,0,1,.7-1.617,2.349,2.349,0,0,1,1.7-.683h12.559a2.307,2.307,0,0,1,1.669.683,2.183,2.183,0,0,1,.7,1.617Zm-4.665-2.407V51.358h-7.966v5.461ZM140.3,59.873v9.52a2.355,2.355,0,0,1-.682,1.706,2.178,2.178,0,0,1-1.615.7,2.391,2.391,0,0,1-2.4-2.407V59.837l-5.921-9.52a2.462,2.462,0,0,1-.395-1.365,2.183,2.183,0,0,1,.7-1.617,2.349,2.349,0,0,1,1.7-.683,2.174,2.174,0,0,1,1.2.359,2.417,2.417,0,0,1,.843.9l4.234,6.862,4.27-6.862a2.26,2.26,0,0,1,.825-.916,2.167,2.167,0,0,1,1.184-.341,2.307,2.307,0,0,1,1.669.683,2.183,2.183,0,0,1,.7,1.617,2.4,2.4,0,0,1-.466,1.437Z" transform="translate(73.38 25.2)"/><g transform="translate(0 0)"><g transform="translate(0 0)"><g transform="translate(0 37.01)"><g class="c"><path class="a" d="M0,0,77.793-.134l-.134,77.793-77.793.134Z" transform="translate(-29.913 29.995) rotate(-45)"/></g></g><g transform="translate(0 0)"><g class="d" transform="translate(0 0)"><path class="a" d="M0,0,77.791-.134l-.134,77.791-77.791.134Z" transform="translate(-29.912 29.994) rotate(-45)"/></g></g></g></g></g></svg>