<svg xmlns="http://www.w3.org/2000/svg" width="24" height="24" viewBox="0 0 24 24"><defs><style>.a{fill:#fff;}</style></defs><path class="a" d="M196.257,341.407a4.684,4.684,0,0,1-5.021,0,.324.324,0,0,0-.458.458,5.254,5.254,0,0,0,5.938,0,.328.328,0,0,0,0-.458A.323.323,0,0,0,196.257,341.407Zm0,0" transform="translate(-181.744 -325.313)"/><path class="a" d="M173.149,257.25a1.25,1.25,0,1,0-1.25,1.25A1.253,1.253,0,0,0,173.149,257.25Zm0,0" transform="translate(-162.649 -244)"/><path class="a" d="M12,0A12,12,0,1,0,24,12,12,12,0,0,0,12,0Zm6.962,13.6a3.481,3.481,0,0,1,.041.526C19,16.819,15.869,19,12,19s-7-2.182-7-4.874a3.521,3.521,0,0,1,.041-.53,1.749,1.749,0,1,1,1.925-2.858,8.581,8.581,0,0,1,4.764-1.483c0-.024.874-4.186.874-4.186a.308.308,0,0,1,.134-.2.312.312,0,0,1,.235-.043l2.909.619a1.25,1.25,0,1,1-.127.612l-2.6-.554-.8,3.751a8.561,8.561,0,0,1,4.68,1.486A1.748,1.748,0,0,1,20,12,1.757,1.757,0,0,1,18.962,13.6Zm0,0"/><path class="a" d="M289.25,256a1.25,1.25,0,1,0,1.25,1.25A1.253,1.253,0,0,0,289.25,256Zm0,0" transform="translate(-274.5 -244)"/></svg>